<?xml version="1.0" standalone="no"?>
<!DOCTYPE svg PUBLIC "-//W3C//DTD SVG 20010904//EN"
 "http://www.w3.org/TR/2001/REC-SVG-20010904/DTD/svg10.dtd">
<svg version="1.0" xmlns="http://www.w3.org/2000/svg"
 width="589.000000pt" height="589.000000pt" viewBox="0 0 589.000000 589.000000"
 preserveAspectRatio="xMidYMid meet">
<metadata>
Created by potrace 1.14, written by Peter Selinger 2001-2017
</metadata>
<g transform="translate(0.000000,589.000000) scale(0.100000,-0.100000)"
fill="#000000" stroke="none">
<path d="M2818 5555 c-2 -1 -41 -5 -88 -9 -93 -7 -114 -10 -240 -32 -159 -28
-494 -127 -525 -155 -5 -5 -15 -9 -22 -9 -18 0 -228 -105 -323 -160 -448 -264
-822 -672 -1050 -1144 -27 -58 -50 -109 -50 -113 0 -4 -7 -21 -15 -37 -25 -47
-93 -254 -116 -351 -27 -116 -29 -124 -34 -164 -3 -18 -7 -36 -9 -40 -3 -4 -7
-35 -11 -70 -4 -34 -9 -72 -12 -84 -9 -39 -12 -470 -3 -542 5 -38 12 -90 15
-115 52 -440 257 -921 547 -1287 89 -112 111 -136 228 -252 448 -443 1049
-714 1675 -756 82 -6 336 -6 380 -1 17 2 58 7 92 10 105 11 143 17 268 43 116
24 331 85 365 103 10 5 40 17 66 26 127 43 445 213 544 291 8 6 47 36 86 65
300 223 562 533 748 883 99 186 208 483 241 656 3 13 7 35 10 49 54 255 67
648 29 900 -49 331 -142 615 -292 895 -54 100 -200 326 -244 377 -13 14 -49
58 -81 96 -153 185 -454 440 -651 552 -20 11 -53 30 -73 41 -94 53 -238 120
-349 162 -109 42 -318 105 -369 113 -11 1 -45 7 -75 13 -30 6 -66 12 -80 15
-14 2 -41 7 -60 10 -86 15 -509 32 -522 21z"/>
</g>
</svg>
